<svg width="8644" height="2716" viewBox="0 0 8644 2716" fill="none" xmlns="http://www.w3.org/2000/svg">
<rect width="716.02" height="716" transform="translate(7117.98 1182)" fill="white"/>
<rect x="7117.98" y="1182" width="716.02" height="716" fill="#4B6F8A"/>
<rect width="716.02" height="716" transform="translate(6115.55 1182)" fill="white"/>
<rect x="6115.55" y="1182" width="716.02" height="716" fill="#4B6F8A"/>
<rect width="358.01" height="1074" transform="translate(5471.13 824)" fill="white"/>
<rect x="5471.13" y="824" width="358.01" height="1074" fill="#4B6F8A"/>
<rect width="716.02" height="1074" transform="translate(4468.7 824)" fill="white"/>
<rect x="4468.7" y="824" width="716.02" height="1074" fill="#4B6F8A"/>
<rect width="716.02" height="358" transform="translate(3466.27 1898)" fill="white"/>
<rect x="3466.27" y="1898" width="716.02" height="358" fill="#4B6F8A"/>
<rect width="716.02" height="1074" transform="translate(2463.85 824)" fill="white"/>
<rect x="2463.85" y="824" width="716.02" height="1074" fill="#4B6F8A"/>
<rect width="358.01" height="1074" transform="translate(1819.43 824)" fill="white"/>
<rect x="1819.43" y="824" width="358.01" height="1074" fill="#4B6F8A"/>
<rect width="716.02" height="1074" transform="translate(817 824)" fill="white"/>
<rect x="817" y="824" width="716.02" height="1074" fill="#4B6F8A"/>
<rect x="60" y="60" width="8524" height="2596" stroke="#4B6F8A" stroke-width="120"/>
</svg>
